# xmcd
#
# Track frame offsets:
#	150
#	15013
#	30428
#	41902
#	58665
#	71600
#	86181
#	98967
#	113019
#	127249
#	140486
#
# Disc length: 2017 seconds
#
# Revision: 1
# Processed by: cddbd v1.5.2PL0 Copyright (c) Steve Scherf et al.
# Submitted via: audiograbber 1.83.01
#
DISCID=9407df0b
DTITLE=Roberto and Ricardo - Todos os Detalhes
DYEAR=2009
DGENRE=Sertanejo e Forró
TTITLE0=Casamento Nem Pensar
TTITLE1=Todos os Detalhes
TTITLE2=Eu Vou Pular
TTITLE3=O Tempo Vem Dizer
TTITLE4=Você me Procura
TTITLE5=Leva Embora a Saudade
TTITLE6=Troca Tapa
TTITLE7=Que Bobo Eu sou
TTITLE8=Vida Boa
TTITLE9=Mamona Minha
TTITLE10=Homem de Pedra
EXTD=Studio top music Goiania \nProdução independente \nProduzido por Jhonatas 
EXTD=Gomes
EXTT0=
EXTT1=
EXTT2=
EXTT3=
EXTT4=
EXTT5=
EXTT6=
EXTT7=
EXTT8=
EXTT9=
EXTT10=
PLAYORDER=
